<svg xmlns="http://www.w3.org/2000/svg" xmlns:xlink="http://www.w3.org/1999/xlink" width="1000" zoomAndPan="magnify" viewBox="0 0 750 749.999995" height="1000" preserveAspectRatio="xMidYMid meet" version="1.2"><defs><clipPath id="ac728c4bb8"><path d="M 19.195312 19.195312 L 730.945312 19.195312 L 730.945312 730.945312 L 19.195312 730.945312 Z M 19.195312 19.195312 "/></clipPath></defs><g id="557b67f8fc"><g clip-rule="nonzero" clip-path="url(#ac728c4bb8)"><path style=" stroke:none;fill-rule:nonzero;fill:#222460;fill-opacity:1;" d="M 731.925781 375.53125 C 731.925781 381.363281 731.78125 387.191406 731.496094 393.019531 C 731.207031 398.84375 730.78125 404.65625 730.207031 410.460938 C 729.636719 416.265625 728.921875 422.050781 728.066406 427.820312 C 727.210938 433.589844 726.214844 439.335938 725.078125 445.054688 C 723.9375 450.773438 722.660156 456.464844 721.246094 462.121094 C 719.828125 467.777344 718.273438 473.398438 716.578125 478.980469 C 714.886719 484.558594 713.058594 490.097656 711.09375 495.585938 C 709.128906 501.078125 707.027344 506.519531 704.796875 511.90625 C 702.5625 517.292969 700.203125 522.625 697.710938 527.898438 C 695.214844 533.167969 692.59375 538.378906 689.84375 543.519531 C 687.09375 548.664062 684.222656 553.738281 681.222656 558.738281 C 678.222656 563.742188 675.105469 568.667969 671.863281 573.515625 C 668.625 578.367188 665.269531 583.132812 661.792969 587.816406 C 658.320312 592.503906 654.734375 597.097656 651.035156 601.605469 C 647.332031 606.113281 643.523438 610.53125 639.609375 614.851562 C 635.691406 619.171875 631.671875 623.394531 627.546875 627.519531 C 623.421875 631.644531 619.199219 635.664062 614.878906 639.582031 C 610.558594 643.496094 606.144531 647.304688 601.636719 651.003906 C 597.125 654.707031 592.53125 658.292969 587.84375 661.765625 C 583.160156 665.242188 578.394531 668.597656 573.546875 671.839844 C 568.695312 675.078125 563.769531 678.199219 558.765625 681.195312 C 553.765625 684.195312 548.691406 687.066406 543.550781 689.816406 C 538.40625 692.566406 533.199219 695.1875 527.925781 697.679688 C 522.652344 700.175781 517.324219 702.539062 511.933594 704.769531 C 506.546875 707 501.105469 709.101562 495.613281 711.066406 C 490.125 713.03125 484.585938 714.859375 479.007812 716.550781 C 473.425781 718.246094 467.804688 719.800781 462.148438 721.214844 C 456.492188 722.632812 450.800781 723.910156 445.082031 725.050781 C 439.363281 726.1875 433.617188 727.183594 427.847656 728.039062 C 422.078125 728.894531 416.292969 729.609375 410.488281 730.179688 C 404.683594 730.753906 398.871094 731.179688 393.046875 731.46875 C 387.21875 731.753906 381.390625 731.898438 375.558594 731.898438 C 369.726562 731.898438 363.898438 731.753906 358.074219 731.46875 C 352.246094 731.179688 346.433594 730.753906 340.628906 730.179688 C 334.824219 729.609375 329.039062 728.894531 323.269531 728.039062 C 317.5 727.183594 311.753906 726.1875 306.035156 725.050781 C 300.316406 723.910156 294.625 722.632812 288.96875 721.214844 C 283.3125 719.800781 277.691406 718.246094 272.113281 716.550781 C 266.53125 714.859375 260.992188 713.03125 255.503906 711.066406 C 250.011719 709.101562 244.570312 707 239.183594 704.769531 C 233.796875 702.539062 228.464844 700.175781 223.191406 697.679688 C 217.921875 695.1875 212.714844 692.566406 207.570312 689.816406 C 202.425781 687.066406 197.351562 684.195312 192.351562 681.195312 C 187.347656 678.199219 182.421875 675.078125 177.574219 671.839844 C 172.722656 668.597656 167.957031 665.242188 163.273438 661.765625 C 158.589844 658.292969 153.992188 654.703125 149.484375 651.003906 C 144.976562 647.304688 140.558594 643.496094 136.238281 639.582031 C 131.917969 635.664062 127.695312 631.644531 123.570312 627.519531 C 119.449219 623.394531 115.425781 619.171875 111.511719 614.851562 C 107.59375 610.53125 103.785156 606.117188 100.085938 601.605469 C 96.386719 597.097656 92.796875 592.503906 89.324219 587.816406 C 85.851562 583.132812 82.492188 578.367188 79.253906 573.515625 C 76.011719 568.667969 72.894531 563.742188 69.894531 558.738281 C 66.894531 553.738281 64.023438 548.664062 61.273438 543.519531 C 58.523438 538.378906 55.902344 533.167969 53.410156 527.898438 C 50.914062 522.625 48.554688 517.292969 46.320312 511.90625 C 44.089844 506.519531 41.992188 501.078125 40.027344 495.585938 C 38.0625 490.097656 36.234375 484.558594 34.539062 478.980469 C 32.847656 473.398438 31.292969 467.777344 29.875 462.121094 C 28.457031 456.464844 27.179688 450.773438 26.042969 445.054688 C 24.90625 439.335938 23.90625 433.589844 23.050781 427.820312 C 22.195312 422.050781 21.484375 416.265625 20.910156 410.460938 C 20.339844 404.65625 19.910156 398.84375 19.625 393.019531 C 19.339844 387.191406 19.195312 381.363281 19.195312 375.53125 C 19.195312 369.699219 19.339844 363.871094 19.625 358.046875 C 19.910156 352.222656 20.339844 346.40625 20.910156 340.601562 C 21.480469 334.796875 22.195312 329.011719 23.050781 323.242188 C 23.90625 317.472656 24.90625 311.730469 26.042969 306.007812 C 27.179688 300.289062 28.457031 294.601562 29.875 288.941406 C 31.292969 283.285156 32.847656 277.664062 34.539062 272.085938 C 36.234375 266.503906 38.0625 260.96875 40.027344 255.476562 C 41.992188 249.984375 44.089844 244.546875 46.320312 239.15625 C 48.554688 233.769531 50.914062 228.4375 53.410156 223.167969 C 55.902344 217.894531 58.523438 212.6875 61.273438 207.542969 C 64.023438 202.398438 66.898438 197.328125 69.894531 192.324219 C 72.894531 187.320312 76.011719 182.394531 79.253906 177.546875 C 82.492188 172.695312 85.851562 167.929688 89.324219 163.246094 C 92.800781 158.5625 96.386719 153.964844 100.085938 149.457031 C 103.785156 144.949219 107.59375 140.535156 111.511719 136.210938 C 115.425781 131.890625 119.449219 127.667969 123.570312 123.542969 C 127.695312 119.421875 131.917969 115.398438 136.238281 111.484375 C 140.558594 107.566406 144.976562 103.757812 149.484375 100.058594 C 153.992188 96.359375 158.589844 92.773438 163.273438 89.296875 C 167.957031 85.824219 172.722656 82.464844 177.574219 79.226562 C 182.421875 75.984375 187.347656 72.867188 192.351562 69.867188 C 197.351562 66.871094 202.425781 63.996094 207.570312 61.246094 C 212.714844 58.496094 217.921875 55.875 223.191406 53.382812 C 228.464844 50.890625 233.796875 48.527344 239.183594 46.292969 C 244.570312 44.0625 250.011719 41.964844 255.503906 40 C 260.992188 38.035156 266.53125 36.207031 272.113281 34.511719 C 277.691406 32.820312 283.3125 31.265625 288.96875 29.847656 C 294.625 28.429688 300.316406 27.152344 306.035156 26.015625 C 311.753906 24.878906 317.5 23.878906 323.269531 23.023438 C 329.039062 22.167969 334.824219 21.457031 340.628906 20.882812 C 346.433594 20.3125 352.25 19.882812 358.074219 19.597656 C 363.898438 19.3125 369.726562 19.167969 375.558594 19.167969 C 381.390625 19.167969 387.21875 19.3125 393.046875 19.597656 C 398.871094 19.882812 404.683594 20.3125 410.488281 20.882812 C 416.292969 21.457031 422.078125 22.167969 427.847656 23.023438 C 433.617188 23.882812 439.363281 24.878906 445.082031 26.015625 C 450.800781 27.152344 456.492188 28.429688 462.148438 29.847656 C 467.804688 31.265625 473.425781 32.820312 479.007812 34.511719 C 484.585938 36.207031 490.125 38.035156 495.613281 40 C 501.105469 41.964844 506.546875 44.0625 511.933594 46.292969 C 517.324219 48.527344 522.652344 50.890625 527.925781 53.382812 C 533.199219 55.875 538.40625 58.496094 543.550781 61.246094 C 548.691406 63.996094 553.765625 66.871094 558.769531 69.867188 C 563.769531 72.867188 568.695312 75.984375 573.546875 79.226562 C 578.394531 82.464844 583.160156 85.824219 587.84375 89.296875 C 592.53125 92.773438 597.125 96.359375 601.636719 100.058594 C 606.144531 103.757812 610.558594 107.566406 614.878906 111.484375 C 619.199219 115.402344 623.421875 119.421875 627.546875 123.542969 C 631.671875 127.667969 635.691406 131.890625 639.609375 136.210938 C 643.523438 140.535156 647.332031 144.949219 651.035156 149.457031 C 654.734375 153.964844 658.320312 158.5625 661.792969 163.246094 C 665.269531 167.929688 668.625 172.699219 671.863281 177.546875 C 675.105469 182.394531 678.222656 187.320312 681.222656 192.324219 C 684.222656 197.328125 687.09375 202.398438 689.84375 207.542969 C 692.59375 212.6875 695.214844 217.894531 697.710938 223.167969 C 700.203125 228.4375 702.5625 233.769531 704.796875 239.15625 C 707.027344 244.546875 709.128906 249.984375 711.09375 255.476562 C 713.058594 260.96875 714.886719 266.503906 716.578125 272.085938 C 718.273438 277.664062 719.828125 283.285156 721.242188 288.941406 C 722.660156 294.601562 723.9375 300.289062 725.078125 306.007812 C 726.214844 311.730469 727.210938 317.472656 728.066406 323.242188 C 728.921875 329.011719 729.636719 334.796875 730.207031 340.601562 C 730.78125 346.40625 731.207031 352.222656 731.496094 358.046875 C 731.78125 363.871094 731.925781 369.699219 731.925781 375.53125 Z M 731.925781 375.53125 "/></g><path style=" stroke:none;fill-rule:nonzero;fill:#ffffff;fill-opacity:1;" d="M 475.664062 295.46875 C 475.664062 297.109375 475.625 298.746094 475.542969 300.382812 C 475.464844 302.019531 475.34375 303.652344 475.183594 305.28125 C 475.023438 306.910156 474.824219 308.539062 474.582031 310.15625 C 474.339844 311.777344 474.058594 313.390625 473.742188 315 C 473.421875 316.605469 473.0625 318.203125 472.664062 319.792969 C 472.265625 321.382812 471.828125 322.960938 471.351562 324.527344 C 470.878906 326.097656 470.363281 327.652344 469.8125 329.195312 C 469.261719 330.738281 468.671875 332.265625 468.042969 333.777344 C 467.417969 335.292969 466.753906 336.789062 466.054688 338.269531 C 465.351562 339.75 464.617188 341.214844 463.84375 342.660156 C 463.074219 344.105469 462.265625 345.527344 461.421875 346.933594 C 460.578125 348.339844 459.703125 349.722656 458.792969 351.085938 C 457.882812 352.445312 456.941406 353.785156 455.964844 355.101562 C 454.988281 356.417969 453.980469 357.707031 452.941406 358.976562 C 451.902344 360.242188 450.832031 361.480469 449.734375 362.695312 C 448.632812 363.910156 447.503906 365.097656 446.34375 366.253906 C 445.1875 367.414062 444 368.542969 442.785156 369.640625 C 441.574219 370.742188 440.332031 371.8125 439.066406 372.851562 C 437.800781 373.890625 436.507812 374.898438 435.191406 375.875 C 433.875 376.851562 432.539062 377.792969 431.175781 378.703125 C 429.8125 379.613281 428.429688 380.488281 427.023438 381.332031 C 425.621094 382.175781 424.195312 382.980469 422.75 383.753906 C 421.304688 384.527344 419.839844 385.261719 418.359375 385.964844 C 416.878906 386.664062 415.382812 387.328125 413.867188 387.953125 C 412.355469 388.582031 410.824219 389.171875 409.28125 389.722656 C 407.742188 390.273438 406.1875 390.789062 404.617188 391.265625 C 403.050781 391.738281 401.472656 392.175781 399.882812 392.574219 C 398.292969 392.972656 396.695312 393.332031 395.089844 393.652344 C 393.484375 393.96875 391.867188 394.25 390.25 394.492188 C 388.628906 394.730469 387.003906 394.933594 385.371094 395.09375 C 383.742188 395.253906 382.109375 395.375 380.472656 395.453125 C 378.835938 395.535156 377.199219 395.574219 375.558594 395.574219 C 373.921875 395.574219 372.285156 395.535156 370.648438 395.453125 C 369.011719 395.375 367.378906 395.253906 365.746094 395.09375 C 364.117188 394.933594 362.492188 394.730469 360.871094 394.492188 C 359.25 394.25 357.636719 393.96875 356.03125 393.652344 C 354.421875 393.332031 352.824219 392.972656 351.234375 392.574219 C 349.644531 392.175781 348.066406 391.738281 346.5 391.265625 C 344.933594 390.789062 343.378906 390.273438 341.835938 389.722656 C 340.292969 389.171875 338.765625 388.582031 337.25 387.953125 C 335.738281 387.328125 334.238281 386.664062 332.757812 385.964844 C 331.277344 385.261719 329.816406 384.527344 328.371094 383.753906 C 326.925781 382.980469 325.5 382.175781 324.09375 381.332031 C 322.691406 380.488281 321.304688 379.613281 319.941406 378.703125 C 318.582031 377.792969 317.242188 376.851562 315.925781 375.875 C 314.609375 374.898438 313.320312 373.890625 312.054688 372.851562 C 310.785156 371.8125 309.546875 370.742188 308.332031 369.640625 C 307.117188 368.542969 305.933594 367.414062 304.773438 366.253906 C 303.617188 365.097656 302.488281 363.910156 301.386719 362.695312 C 300.285156 361.480469 299.214844 360.242188 298.175781 358.976562 C 297.136719 357.707031 296.128906 356.417969 295.152344 355.101562 C 294.179688 353.785156 293.234375 352.445312 292.324219 351.085938 C 291.414062 349.722656 290.539062 348.339844 289.695312 346.933594 C 288.855469 345.527344 288.046875 344.101562 287.273438 342.660156 C 286.503906 341.214844 285.765625 339.75 285.066406 338.269531 C 284.363281 336.789062 283.699219 335.292969 283.074219 333.777344 C 282.445312 332.265625 281.855469 330.738281 281.304688 329.195312 C 280.753906 327.652344 280.242188 326.097656 279.765625 324.527344 C 279.289062 322.960938 278.851562 321.382812 278.453125 319.792969 C 278.054688 318.203125 277.695312 316.605469 277.378906 315 C 277.058594 313.390625 276.777344 311.777344 276.539062 310.15625 C 276.296875 308.539062 276.097656 306.910156 275.9375 305.28125 C 275.777344 303.652344 275.65625 302.019531 275.574219 300.382812 C 275.496094 298.746094 275.453125 297.109375 275.453125 295.46875 C 275.453125 293.832031 275.496094 292.195312 275.574219 290.558594 C 275.65625 288.921875 275.777344 287.289062 275.9375 285.65625 C 276.097656 284.027344 276.296875 282.402344 276.539062 280.78125 C 276.777344 279.160156 277.058594 277.546875 277.378906 275.941406 C 277.695312 274.332031 278.054688 272.734375 278.453125 271.144531 C 278.851562 269.558594 279.289062 267.976562 279.765625 266.410156 C 280.238281 264.84375 280.753906 263.289062 281.304688 261.746094 C 281.855469 260.203125 282.445312 258.675781 283.074219 257.160156 C 283.699219 255.648438 284.363281 254.148438 285.066406 252.667969 C 285.765625 251.1875 286.503906 249.726562 287.273438 248.28125 C 288.046875 246.835938 288.855469 245.410156 289.695312 244.003906 C 290.539062 242.601562 291.414062 241.214844 292.324219 239.855469 C 293.234375 238.492188 294.179688 237.152344 295.152344 235.835938 C 296.128906 234.519531 297.136719 233.230469 298.175781 231.964844 C 299.214844 230.695312 300.285156 229.457031 301.386719 228.242188 C 302.484375 227.027344 303.617188 225.84375 304.773438 224.683594 C 305.933594 223.527344 307.117188 222.398438 308.332031 221.296875 C 309.546875 220.195312 310.785156 219.125 312.054688 218.085938 C 313.320312 217.046875 314.609375 216.039062 315.925781 215.0625 C 317.242188 214.089844 318.582031 213.144531 319.941406 212.234375 C 321.304688 211.324219 322.691406 210.449219 324.09375 209.605469 C 325.5 208.765625 326.925781 207.957031 328.371094 207.183594 C 329.816406 206.414062 331.277344 205.675781 332.757812 204.976562 C 334.238281 204.273438 335.738281 203.613281 337.25 202.984375 C 338.765625 202.359375 340.292969 201.769531 341.835938 201.214844 C 343.375 200.664062 344.933594 200.152344 346.5 199.675781 C 348.066406 199.199219 349.644531 198.761719 351.234375 198.363281 C 352.824219 197.96875 354.421875 197.609375 356.027344 197.289062 C 357.636719 196.96875 359.25 196.6875 360.871094 196.449219 C 362.492188 196.207031 364.117188 196.007812 365.746094 195.847656 C 367.378906 195.6875 369.011719 195.566406 370.648438 195.484375 C 372.285156 195.40625 373.921875 195.363281 375.558594 195.363281 C 377.199219 195.363281 378.835938 195.40625 380.472656 195.484375 C 382.109375 195.566406 383.742188 195.6875 385.371094 195.847656 C 387.003906 196.007812 388.628906 196.207031 390.25 196.449219 C 391.867188 196.6875 393.484375 196.96875 395.089844 197.289062 C 396.695312 197.609375 398.292969 197.964844 399.882812 198.363281 C 401.472656 198.761719 403.050781 199.199219 404.617188 199.675781 C 406.1875 200.152344 407.742188 200.664062 409.28125 201.214844 C 410.824219 201.769531 412.355469 202.359375 413.867188 202.984375 C 415.382812 203.613281 416.878906 204.273438 418.359375 204.976562 C 419.839844 205.675781 421.304688 206.414062 422.75 207.183594 C 424.191406 207.957031 425.617188 208.765625 427.023438 209.605469 C 428.429688 210.449219 429.8125 211.324219 431.175781 212.234375 C 432.535156 213.144531 433.875 214.089844 435.191406 215.0625 C 436.507812 216.039062 437.800781 217.046875 439.066406 218.085938 C 440.332031 219.125 441.574219 220.195312 442.785156 221.296875 C 444 222.398438 445.1875 223.527344 446.34375 224.683594 C 447.503906 225.84375 448.632812 227.027344 449.734375 228.242188 C 450.832031 229.457031 451.902344 230.695312 452.941406 231.964844 C 453.980469 233.230469 454.988281 234.519531 455.964844 235.835938 C 456.941406 237.152344 457.882812 238.492188 458.792969 239.855469 C 459.703125 241.214844 460.578125 242.601562 461.421875 244.003906 C 462.265625 245.410156 463.074219 246.835938 463.84375 248.28125 C 464.617188 249.726562 465.351562 251.1875 466.054688 252.667969 C 466.753906 254.148438 467.417969 255.648438 468.042969 257.160156 C 468.671875 258.675781 469.261719 260.203125 469.8125 261.746094 C 470.363281 263.289062 470.878906 264.84375 471.351562 266.410156 C 471.828125 267.976562 472.265625 269.554688 472.664062 271.144531 C 473.0625 272.734375 473.421875 274.332031 473.742188 275.941406 C 474.058594 277.546875 474.339844 279.160156 474.582031 280.78125 C 474.824219 282.402344 475.023438 284.027344 475.183594 285.65625 C 475.34375 287.289062 475.464844 288.921875 475.542969 290.558594 C 475.625 292.195312 475.664062 293.832031 475.664062 295.46875 Z M 475.664062 295.46875 "/><path style=" stroke:none;fill-rule:nonzero;fill:#ffffff;fill-opacity:1;" d="M 587.417969 545.011719 C 587.417969 546.835938 587.332031 548.65625 587.164062 550.480469 C 586.992188 552.300781 586.738281 554.117188 586.398438 555.933594 C 586.058594 557.746094 585.632812 559.554688 585.125 561.359375 C 584.617188 563.164062 584.023438 564.957031 583.34375 566.746094 C 582.667969 568.535156 581.910156 570.3125 581.066406 572.082031 C 580.222656 573.851562 579.300781 575.605469 578.292969 577.351562 C 577.289062 579.097656 576.199219 580.828125 575.03125 582.542969 C 573.863281 584.261719 572.617188 585.960938 571.289062 587.644531 C 569.960938 589.328125 568.558594 590.996094 567.074219 592.644531 C 565.59375 594.292969 564.035156 595.921875 562.402344 597.527344 C 560.765625 599.136719 559.058594 600.722656 557.273438 602.285156 C 555.492188 603.851562 553.636719 605.390625 551.710938 606.90625 C 549.785156 608.421875 547.789062 609.910156 545.722656 611.375 C 543.660156 612.839844 541.527344 614.277344 539.328125 615.6875 C 537.128906 617.097656 534.863281 618.476562 532.535156 619.828125 C 530.207031 621.179688 527.816406 622.5 525.363281 623.789062 C 522.914062 625.078125 520.402344 626.332031 517.832031 627.558594 C 515.265625 628.78125 512.640625 629.972656 509.960938 631.128906 C 507.28125 632.285156 504.546875 633.40625 501.761719 634.492188 C 498.976562 635.578125 496.144531 636.628906 493.261719 637.640625 C 490.378906 638.65625 487.449219 639.628906 484.476562 640.566406 C 481.5 641.503906 478.484375 642.402344 475.425781 643.261719 C 472.371094 644.121094 469.273438 644.941406 466.140625 645.722656 C 463.007812 646.5 459.835938 647.238281 456.632812 647.9375 C 453.429688 648.636719 450.195312 649.292969 446.929688 649.90625 C 443.667969 650.519531 440.375 651.089844 437.058594 651.621094 C 433.742188 652.148438 430.398438 652.636719 427.035156 653.078125 C 423.671875 653.523438 420.289062 653.921875 416.890625 654.277344 C 413.488281 654.632812 410.074219 654.945312 406.644531 655.210938 C 403.214844 655.480469 399.777344 655.703125 396.324219 655.882812 C 392.875 656.058594 389.417969 656.195312 385.957031 656.285156 C 382.492188 656.371094 379.027344 656.417969 375.558594 656.417969 C 372.09375 656.417969 368.628906 656.375 365.164062 656.285156 C 361.703125 656.195312 358.246094 656.058594 354.792969 655.882812 C 351.34375 655.703125 347.902344 655.480469 344.472656 655.210938 C 341.042969 654.945312 337.628906 654.632812 334.226562 654.277344 C 330.828125 653.921875 327.445312 653.523438 324.082031 653.078125 C 320.71875 652.636719 317.378906 652.148438 314.058594 651.621094 C 310.742188 651.089844 307.449219 650.519531 304.1875 649.90625 C 300.921875 649.289062 297.6875 648.636719 294.484375 647.9375 C 291.28125 647.238281 288.113281 646.5 284.976562 645.722656 C 281.84375 644.941406 278.75 644.121094 275.691406 643.261719 C 272.632812 642.402344 269.617188 641.503906 266.644531 640.566406 C 263.667969 639.628906 260.742188 638.65625 257.859375 637.640625 C 254.976562 636.628906 252.140625 635.578125 249.355469 634.492188 C 246.570312 633.40625 243.839844 632.285156 241.160156 631.128906 C 238.476562 629.972656 235.855469 628.78125 233.285156 627.558594 C 230.714844 626.332031 228.207031 625.078125 225.753906 623.789062 C 223.300781 622.5 220.910156 621.179688 218.582031 619.828125 C 216.253906 618.476562 213.992188 617.097656 211.792969 615.6875 C 209.59375 614.277344 207.460938 612.839844 205.394531 611.375 C 203.328125 609.910156 201.332031 608.421875 199.40625 606.90625 C 197.480469 605.390625 195.625 603.851562 193.84375 602.285156 C 192.058594 600.722656 190.351562 599.136719 188.71875 597.527344 C 187.082031 595.921875 185.523438 594.292969 184.042969 592.644531 C 182.558594 590.996094 181.15625 589.328125 179.828125 587.644531 C 178.5 585.960938 177.253906 584.261719 176.085938 582.542969 C 174.917969 580.828125 173.832031 579.097656 172.824219 577.351562 C 171.816406 575.605469 170.894531 573.851562 170.050781 572.082031 C 169.207031 570.3125 168.449219 568.535156 167.773438 566.746094 C 167.097656 564.957031 166.503906 563.164062 165.996094 561.359375 C 165.488281 559.554688 165.0625 557.746094 164.722656 555.933594 C 164.382812 554.117188 164.128906 552.300781 163.957031 550.480469 C 163.789062 548.65625 163.703125 546.835938 163.703125 545.011719 C 163.703125 543.1875 163.789062 541.367188 163.957031 539.546875 C 164.128906 537.726562 164.382812 535.90625 164.722656 534.09375 C 165.0625 532.277344 165.488281 530.46875 165.996094 528.664062 C 166.503906 526.863281 167.097656 525.066406 167.773438 523.277344 C 168.449219 521.488281 169.207031 519.710938 170.050781 517.941406 C 170.894531 516.175781 171.816406 514.417969 172.824219 512.671875 C 173.832031 510.929688 174.917969 509.199219 176.085938 507.480469 C 177.253906 505.765625 178.5 504.0625 179.828125 502.378906 C 181.15625 500.695312 182.558594 499.027344 184.042969 497.378906 C 185.523438 495.730469 187.082031 494.105469 188.71875 492.496094 C 190.351562 490.886719 192.058594 489.300781 193.84375 487.738281 C 195.625 486.175781 197.480469 484.632812 199.40625 483.117188 C 201.332031 481.601562 203.328125 480.113281 205.394531 478.648438 C 207.457031 477.183594 209.589844 475.746094 211.792969 474.335938 C 213.992188 472.929688 216.253906 471.546875 218.582031 470.195312 C 220.910156 468.847656 223.300781 467.527344 225.753906 466.238281 C 228.207031 464.949219 230.714844 463.691406 233.285156 462.464844 C 235.855469 461.242188 238.476562 460.050781 241.160156 458.894531 C 243.839844 457.738281 246.570312 456.617188 249.355469 455.53125 C 252.140625 454.445312 254.972656 453.394531 257.855469 452.382812 C 260.738281 451.367188 263.667969 450.394531 266.640625 449.457031 C 269.617188 448.519531 272.632812 447.621094 275.691406 446.761719 C 278.75 445.902344 281.84375 445.082031 284.976562 444.304688 C 288.113281 443.523438 291.28125 442.785156 294.484375 442.085938 C 297.6875 441.390625 300.921875 440.734375 304.1875 440.117188 C 307.449219 439.503906 310.742188 438.933594 314.058594 438.402344 C 317.378906 437.875 320.71875 437.386719 324.082031 436.945312 C 327.445312 436.503906 330.828125 436.101562 334.226562 435.746094 C 337.628906 435.390625 341.042969 435.082031 344.472656 434.8125 C 347.902344 434.546875 351.34375 434.320312 354.792969 434.144531 C 358.246094 433.964844 361.703125 433.832031 365.164062 433.742188 C 368.628906 433.652344 372.09375 433.605469 375.558594 433.605469 C 379.027344 433.605469 382.492188 433.652344 385.957031 433.742188 C 389.417969 433.832031 392.875 433.964844 396.328125 434.144531 C 399.777344 434.320312 403.214844 434.546875 406.644531 434.8125 C 410.074219 435.082031 413.488281 435.390625 416.890625 435.746094 C 420.289062 436.101562 423.671875 436.503906 427.035156 436.945312 C 430.398438 437.386719 433.742188 437.875 437.058594 438.402344 C 440.375 438.933594 443.667969 439.503906 446.929688 440.117188 C 450.195312 440.734375 453.429688 441.390625 456.632812 442.085938 C 459.835938 442.785156 463.007812 443.523438 466.140625 444.304688 C 469.273438 445.082031 472.371094 445.902344 475.425781 446.761719 C 478.484375 447.621094 481.5 448.519531 484.476562 449.457031 C 487.449219 450.394531 490.378906 451.367188 493.261719 452.382812 C 496.144531 453.394531 498.976562 454.445312 501.761719 455.53125 C 504.546875 456.617188 507.28125 457.738281 509.960938 458.894531 C 512.640625 460.050781 515.265625 461.242188 517.832031 462.464844 C 520.402344 463.691406 522.914062 464.949219 525.363281 466.238281 C 527.816406 467.527344 530.207031 468.847656 532.535156 470.195312 C 534.863281 471.546875 537.128906 472.929688 539.328125 474.335938 C 541.527344 475.746094 543.660156 477.183594 545.726562 478.648438 C 547.789062 480.113281 549.785156 481.601562 551.710938 483.117188 C 553.640625 484.632812 555.492188 486.175781 557.277344 487.738281 C 559.058594 489.300781 560.765625 490.886719 562.402344 492.496094 C 564.035156 494.105469 565.59375 495.730469 567.074219 497.378906 C 568.558594 499.027344 569.960938 500.695312 571.289062 502.378906 C 572.617188 504.0625 573.863281 505.765625 575.03125 507.480469 C 576.199219 509.199219 577.289062 510.929688 578.292969 512.671875 C 579.300781 514.417969 580.222656 516.175781 581.066406 517.941406 C 581.910156 519.710938 582.667969 521.488281 583.34375 523.277344 C 584.023438 525.066406 584.617188 526.863281 585.125 528.667969 C 585.632812 530.46875 586.058594 532.277344 586.398438 534.09375 C 586.738281 535.90625 586.992188 537.726562 587.164062 539.546875 C 587.332031 541.367188 587.417969 543.1875 587.417969 545.011719 Z M 587.417969 545.011719 "/></g></svg>